<?xml version="1.0" standalone="no"?>
<!DOCTYPE svg PUBLIC "-//W3C//DTD SVG 20010904//EN"
 "http://www.w3.org/TR/2001/REC-SVG-20010904/DTD/svg10.dtd">
<svg version="1.0" xmlns="http://www.w3.org/2000/svg"
 width="260.000000pt" height="260.000000pt" viewBox="0 0 260.000000 260.000000"
 preserveAspectRatio="xMidYMid meet">
<metadata>
Created by potrace 1.14, written by Peter Selinger 2001-2017
</metadata>
<g transform="translate(0.000000,260.000000) scale(0.100000,-0.100000)"
fill="#000000" stroke="none">
<path d="M1205 2588 c-49 -4 -99 -9 -110 -12 -11 -2 -40 -9 -65 -15 -125 -29
-312 -107 -406 -171 -25 -16 -47 -30 -49 -30 -5 0 -16 -8 -105 -83 -238 -199
-404 -489 -444 -777 -13 -91 -14 -322 -2 -402 43 -286 201 -565 432 -768 160
-140 380 -249 599 -296 91 -19 366 -28 455 -13 30 5 73 11 94 15 59 8 211 61
301 104 196 93 408 272 517 435 57 87 142 255 158 315 16 58 7 213 -16 271
-33 84 -142 200 -229 243 -84 41 -141 45 -583 46 l-418 0 0 -150 -1 -150 161
0 c346 -1 637 -9 675 -20 39 -10 90 -57 92 -86 1 -8 2 -24 3 -36 5 -55 -51
-175 -130 -278 -155 -205 -432 -371 -656 -396 -73 -8 -243 -7 -307 1 -122 15
-289 82 -410 165 -59 40 -167 140 -222 206 -67 80 -149 242 -178 350 -33 123
-33 346 -2 478 88 366 446 687 821 734 74 9 221 8 295 -2 124 -17 268 -71 394
-148 36 -22 69 -42 72 -44 5 -3 152 166 196 227 35 48 -327 221 -551 264 -44
9 -122 18 -175 21 -53 3 -100 6 -106 8 -5 1 -50 -2 -100 -6z"/>
<path d="M1131 2009 c-454 -116 -693 -639 -474 -1039 97 -177 248 -308 428
-367 74 -25 93 -27 255 -27 l175 -1 78 34 c140 60 263 152 346 258 29 39 101
172 101 191 0 4 -78 7 -172 8 l-173 1 -55 -52 c-105 -99 -161 -125 -279 -129
-196 -7 -327 65 -416 229 -75 137 -47 345 61 464 70 78 187 129 309 136 85 4
136 -6 212 -41 30 -13 59 -22 65 -18 10 6 130 168 161 216 17 27 17 27 -21 53
-37 25 -162 77 -218 91 -16 4 -92 8 -169 10 -111 2 -155 -2 -214 -17z"/>
</g>
</svg>
